<svg id="Capa_1" data-name="Capa 1" xmlns="http://www.w3.org/2000/svg" viewBox="0 0 255.19 223.9">
    <defs>
        <style>.cls-1{fill:#fff;}</style>
    </defs>
    <title>braintech-b</title>
    <g id="_000000ff" data-name=" 000000ff">
    <path class="cls-1" d="M253.44,87A125.2,125.2,0,0,0,197.3,19.18C170,3.28,137.43-2.15,106.18.74,74.57,3.46,43.27,16.26,21,39.23,13.5,47,6.48,55.67,3,66.05a54.42,54.42,0,0,0,3.39,43.13c9.12,18.1,29.17,29.08,49.15,29.29,24,.35,48.34-1,72.12,3.41,8.75,1.76,17.84,4.25,24.71,10.25,5.06,4.39,7.57,11.14,7.51,17.76V218c-.36,3.62,3.2,6.44,6.67,5.81,6.73-.06,13.47.05,20.2,0a5.24,5.24,0,0,0,5.13-5.35l0-.47V166c.07-7.27,1-15.17,5.94-20.88,3.79-4.6,9.91-6.59,15.72-6.59,7.91,0,15.95-1.69,22.8-5.78C251.69,123.85,258.88,103.76,253.44,87ZM227,125.41c-7.81,3.52-16.7,1.29-24.64,4.26A32.19,32.19,0,0,0,193,134.8a17.68,17.68,0,0,0-3.78,4.13l-1.8,2.24-1.69,2.51a45.78,45.78,0,0,0-4.47,19.24c-.2,16.77.21,33.56-.2,50.32-3.48-.13-7-.1-10.45-.09v-42.3c0-7.13-1.58-14.43-5.63-20.4-5-7.48-13.1-12.29-21.43-15.3-12.18-4.37-25.16-5.85-38-6.66-1.43-.07-1.36-.08-3.39-.13-3.66-.18-2.94-.14-4.9-.22-1-.06-1.49-.06-2.47-.13-9.73-.24-19.46-.26-29.18-.23-5.64-.09-11.32.34-16.9-.62a46.76,46.76,0,0,1-21.9-9.4,36.11,36.11,0,0,1-4.2-4,34.53,34.53,0,0,1-3-3.82,43.67,43.67,0,0,1-6.65-40c2.52-8.19,8.06-15,13.79-21.39l7.78-7.5A116.93,116.93,0,0,1,74.22,18.4c.5-.22.82-.31,1.4-.54a4,4,0,0,1,.59-.17c.21-.09.68-.2,1.12-.37l3.23-.89c1.78-.5,1.78-.57,4-1.2a11.54,11.54,0,0,1,1.67-.37,136,136,0,0,1,31.12-3.94c1.23-.05,2.14-.13,3.37-.1s1.32-.06,4.76,0h2.39a143.84,143.84,0,0,1,42.4,7.68l11,4.46c16.36,7.58,31.5,18.5,42.58,32.82.74.77,1.27,1.63,2,2.46,1.31,1.6,1.48,1.72,2.74,3.44.75,1,1,1.51,2,3A112.72,112.72,0,0,1,243.17,90C247.85,103.61,240.64,120.32,227,125.41Z" transform="translate(-0.05 0)"/><path d="M175.75,20.92" transform="translate(-0.05 0)"/><path d="M186.21,143l-.1.2" transform="translate(-0.05 0)"/></g><path class="cls-1" d="M140.36,114.6a4.68,4.68,0,0,0,9.35.43,3.09,3.09,0,0,0,0-.43v-7.68h-9.34v7.68Z" transform="translate(-0.05 0)"/><path class="cls-1" d="M140.36,31v7.65h9.34V31a4.67,4.67,0,0,0-9.34,0Z" transform="translate(-0.05 0)"/><path class="cls-1" d="M125.16,31v7.65h9.35V31a4.68,4.68,0,0,0-9.35-.43A3.09,3.09,0,0,0,125.16,31Z" transform="translate(-0.05 0)"/><path class="cls-1" d="M125.16,114.6a4.68,4.68,0,1,0,9.35.43,3.09,3.09,0,0,0,0-.43v-7.68h-9.35Z" transform="translate(-0.05 0)"/><path class="cls-1" d="M110,31v7.65h9.33V31a4.67,4.67,0,0,0-9.33-.43A3.09,3.09,0,0,0,110,31Z" transform="translate(-0.05 0)"/><path class="cls-1" d="M110,114.6a4.67,4.67,0,1,0,9.34,0v-7.68H110Z" transform="translate(-0.05 0)"/><path class="cls-1" d="M84,88.22A4.71,4.71,0,0,0,88.66,93H96.2V83.49H88.66A4.69,4.69,0,0,0,84,88.2Z" transform="translate(-0.05 0)"/><path class="cls-1" d="M171,83.49h-7.54V93H171a4.74,4.74,0,1,0,0-9.48Z" transform="translate(-0.05 0)"/><path class="cls-1" d="M84,72.81a4.69,4.69,0,0,0,4.66,4.74H96.2V68.07H88.66A4.69,4.69,0,0,0,84,72.8Z" transform="translate(-0.05 0)"/><path class="cls-1" d="M171,68.07h-7.54v9.48H171a4.74,4.74,0,1,0,0-9.48Z" transform="translate(-0.05 0)"/><path class="cls-1" d="M84,57.4a4.69,4.69,0,0,0,4.66,4.74H96.2V52.65H88.66A4.71,4.71,0,0,0,84,57.4Z" transform="translate(-0.05 0)"/><path class="cls-1" d="M171,52.65h-7.54v9.48H171a4.74,4.74,0,1,0,0-9.48Z" transform="translate(-0.05 0)"/><path class="cls-1" d="M100.69,97.45a4.9,4.9,0,0,0,4.86,4.94h48.57A4.9,4.9,0,0,0,159,97.45h0V48.17a4.9,4.9,0,0,0-4.86-4.94H105.58a4.9,4.9,0,0,0-4.87,4.93h0Z" transform="translate(-0.05 0)"/>
</svg>